<svg width="77" height="66" viewBox="0 0 77 66" fill="none" xmlns="http://www.w3.org/2000/svg">
<path d="M57.6371 0.123657H19.6501L0.682861 33.0355L19.6501 65.9474H21.3792H57.6371L76.6568 33.0355L57.6371 0.123657ZM65.1297 30.6772C61.7764 24.2311 55.0174 20.877 50.8781 18.7807C49.8826 18.2566 48.9918 17.8374 48.3631 17.4705C46.11 16.0555 45.1669 14.1165 46.0576 12.4918C46.634 11.3913 47.9963 10.6051 49.7777 10.6051C50.8256 10.6051 51.9784 10.8672 53.2883 11.4437C61.3049 15.1646 64.3962 24.9124 65.1297 30.6772ZM27.6667 9.24256C30.8629 7.04145 34.583 6.20294 38.1983 6.20294C42.8091 6.20294 47.2628 7.5131 50.1969 8.77088C42.9663 8.40403 36.6264 12.4918 32.6967 15.0074C31.7536 15.6363 30.9153 16.1603 30.2865 16.4748C27.9287 17.7326 25.7805 17.5229 24.8373 15.9507C23.8942 14.3261 24.523 11.4961 27.6667 9.24256ZM23.8942 10.5003C19.9122 16.5796 20.1741 24.1263 20.3837 28.7381C20.4361 29.8911 20.4885 30.8344 20.4361 31.5681C20.2789 34.2409 19.0214 35.9703 17.1875 36.0227C17.1875 36.0227 17.1876 36.0227 17.1352 36.0227C15.1965 36.0227 13.0483 34.0313 12.7863 30.2055C12.1575 21.3487 19.1786 13.9068 23.8942 10.5003ZM12.0003 34.8698C15.3537 41.3159 22.1128 44.67 26.2521 46.7663C27.2476 47.2903 28.1383 47.7096 28.7146 48.0764C30.9677 49.4914 31.9108 51.4305 31.0201 53.0551C30.0769 54.7846 27.2999 55.6755 23.7894 54.1033C15.8252 50.3824 12.7339 40.6346 12.0003 34.8698ZM49.4634 56.252C42.1803 61.2831 32.2252 59.0296 26.8808 56.6713C34.1638 57.0381 40.5037 52.9503 44.381 50.4348C45.3241 49.8059 46.1624 49.2818 46.7912 48.9674C49.149 47.7096 51.2972 47.9192 52.2404 49.4914C53.2359 51.2209 52.6071 54.0509 49.4634 56.252ZM38.6698 47.1855C30.8629 47.1855 24.523 40.8442 24.523 33.0355C24.523 25.2268 30.8629 18.8855 38.6698 18.8855C46.4768 18.8855 52.8167 25.2268 52.8167 33.0355C52.8167 40.8442 46.4768 47.1855 38.6698 47.1855ZM53.2359 54.9942C57.2704 48.915 56.956 41.3683 56.7464 36.7564C56.694 35.6035 56.6416 34.6601 56.694 33.9264C56.8512 31.2537 58.1087 29.5242 59.9425 29.4718C59.9425 29.4718 59.9425 29.4718 59.9949 29.4718C61.9336 29.4718 64.0818 31.4633 64.3438 35.289C64.9725 44.1459 57.9515 51.5877 53.2359 54.9942Z" fill="#E01212"/>
<path d="M38.6698 24.86C34.1638 24.86 30.5485 28.5285 30.4961 33.0356C30.4961 37.5426 34.1638 41.1587 38.6698 41.2111C43.1759 41.2111 46.7912 37.5426 46.8436 33.0356C46.7912 28.5285 43.1759 24.9124 38.6698 24.86Z" fill="#E01212"/>
</svg>
