<svg width="134" height="40" viewBox="0 0 134 40" fill="none" xmlns="http://www.w3.org/2000/svg">
<g clip-path="url(#clip0_4_40)">
<path d="M61.5089 27.6764C62.0526 28.4493 62.9702 28.8369 64.2616 28.839C65.553 28.8411 66.5162 28.4536 67.1513 27.6764C67.7567 26.9013 68.0604 25.8162 68.0625 24.4211V5.30975H75.5082V24.3446C75.5082 27.9078 74.5195 30.6142 72.542 32.4638C70.5646 34.3133 67.8034 35.237 64.2584 35.2349C60.6646 35.2349 57.9374 34.2921 56.0768 32.4064C54.2161 30.5208 53.2211 27.7942 53.0915 24.2268H60.534C60.6402 25.7514 60.9652 26.9013 61.5089 27.6764Z" fill="white"/>
<path d="M91.6198 32.1325C90.9246 33.1312 89.9829 33.9333 88.8862 34.4609C87.8326 34.9331 86.6891 35.1711 85.5345 35.1585C83.4658 35.1585 81.8728 34.531 80.7555 33.276C79.6383 32.021 79.0755 30.1938 79.067 27.7942V14.187H86.0762V26.6699C86.0762 27.7316 86.2705 28.4483 86.6592 28.8199C86.8799 29.0165 87.1374 29.1674 87.4169 29.2636C87.6964 29.3598 87.9922 29.3996 88.2872 29.3805C88.7018 29.3884 89.1139 29.3139 89.4995 29.1614C89.885 29.0088 90.2365 28.7812 90.5334 28.4918C90.7927 28.2072 91.0075 27.885 91.1706 27.5362C91.3624 27.0437 91.4482 26.5162 91.4223 25.9882V14.2029H98.4315V34.5533H91.6198V32.1325Z" fill="white"/>
<path d="M108.764 14.187V16.6683C109.402 15.7599 110.253 15.0217 111.242 14.5182C112.25 14.0495 113.352 13.8175 114.463 13.8398C115.127 13.8312 115.789 13.8953 116.439 14.0309L115.652 20.0414C115.321 19.954 114.983 19.8954 114.642 19.8662C114.256 19.828 113.868 19.8089 113.479 19.8089C112.913 19.8087 112.348 19.8663 111.794 19.9809C111.257 20.0897 110.749 20.3064 110.299 20.6179C109.844 20.9724 109.492 21.442 109.28 21.978C109.041 22.6631 108.933 23.3871 108.961 24.1121V34.5374H101.952V14.187H108.764Z" fill="white"/>
<path d="M125.245 11.9382H118.15V5.31613H125.245V11.9382ZM125.207 34.5533H118.201V14.187H125.21L125.207 34.5533Z" fill="white"/>
<path d="M34.6446 0H11.5461L0 20L11.5461 40H34.6446L46.197 20L34.6446 0ZM39.1878 18.5667C37.136 14.652 33.0325 12.5944 30.5155 11.333C29.9006 11.0145 29.3686 10.7565 29.0022 10.5272C27.6194 9.67033 27.0651 8.48543 27.5876 7.51075C27.9476 6.84185 28.76 6.37044 29.8528 6.37044C30.5881 6.38609 31.3116 6.55877 31.9747 6.87689C36.8716 9.12884 38.7577 15.0661 39.1878 18.5667ZM16.4175 5.55821C18.3609 4.20449 20.6294 3.71715 22.8341 3.71715C25.3518 3.75845 27.8362 4.29982 30.1428 5.30976C25.7365 5.0645 21.8783 7.54897 19.5111 9.07151C18.9312 9.44418 18.431 9.76907 18.0455 9.96974C16.6054 10.7246 15.3024 10.6068 14.7257 9.65122C14.1076 8.63195 14.4899 6.89919 16.4175 5.55821ZM14.1172 6.32266C11.6831 10.0048 11.8615 14.6042 11.973 17.4009C11.9985 18.0889 12.024 18.6749 12.0017 19.1177C11.9156 20.7422 11.1478 21.7997 10.0359 21.8156H10.0168C8.82841 21.8156 7.54445 20.6052 7.37241 18.2768C6.97097 12.9097 11.2561 8.38669 14.1172 6.32266ZM6.89451 21.1116C8.93992 25.0231 13.0435 27.0744 15.5604 28.3485C16.1721 28.667 16.701 28.9218 17.0706 29.148C18.4533 30.008 19.0077 31.1961 18.482 32.1739C17.9181 33.2219 16.2295 33.7665 14.0949 32.795C9.20436 30.5526 7.3278 24.6154 6.89451 21.1116ZM29.6521 34.1233C25.2395 37.1938 19.1638 35.8019 15.93 34.4004C20.3458 34.6265 24.2136 32.1389 26.5744 30.6163C27.1479 30.2437 27.6449 29.9251 28.0241 29.7245C29.4673 28.9696 30.7704 29.0874 31.3471 30.043C31.9651 31.0495 31.5796 32.7823 29.6521 34.1233ZM23.0953 28.6001C21.394 28.6001 19.7308 28.0957 18.3162 27.1507C16.9016 26.2057 15.799 24.8626 15.1479 23.2911C14.4968 21.7197 14.3265 19.9905 14.6584 18.3222C14.9903 16.6539 15.8096 15.1216 17.0126 13.9188C18.2157 12.7161 19.7484 11.897 21.4171 11.5652C23.0858 11.2333 24.8154 11.4036 26.3872 12.0545C27.9591 12.7055 29.3026 13.8078 30.2478 15.222C31.193 16.6363 31.6975 18.2991 31.6975 20C31.6975 22.2809 30.7912 24.4684 29.178 26.0812C27.5648 27.694 25.3768 28.6001 23.0953 28.6001ZM31.9524 33.3524C34.3897 29.6703 34.2113 25.0709 34.0998 22.2711C34.0743 21.5831 34.0488 20.997 34.0711 20.5606C34.1539 18.933 34.9249 17.8755 36.0337 17.8627H36.056C37.2412 17.8627 38.5251 19.0731 38.7003 21.4047C39.1018 26.7559 34.8134 31.2884 31.9524 33.3524Z" fill="white"/>
<path d="M23.0953 15.047C22.1147 15.047 21.1561 15.3378 20.3408 15.8825C19.5255 16.4272 18.8901 17.2015 18.5149 18.1073C18.1398 19.0131 18.0418 20.0098 18.2334 20.9713C18.4249 21.9328 18.8974 22.8159 19.591 23.5089C20.2846 24.2019 21.1683 24.6737 22.1301 24.8646C23.092 25.0554 24.0888 24.9568 24.9946 24.5812C25.9004 24.2056 26.6744 23.5699 27.2188 22.7544C27.7631 21.9389 28.0533 20.9804 28.0527 20C28.051 18.6864 27.5281 17.427 26.5987 16.4984C25.6692 15.5698 24.4093 15.0478 23.0953 15.047Z" fill="white"/>
<path d="M128.227 30.9412C128.373 30.5833 128.59 30.2584 128.864 29.9857C129.138 29.7213 129.464 29.5153 129.82 29.3805C130.202 29.237 130.607 29.1647 131.015 29.1671C131.421 29.1641 131.824 29.2365 132.203 29.3805C132.562 29.5141 132.888 29.7238 133.159 29.9952C133.436 30.2657 133.653 30.5912 133.796 30.9508C134.102 31.7617 134.102 32.6562 133.796 33.4671C133.651 33.8257 133.434 34.1508 133.159 34.4227C132.887 34.6895 132.561 34.8958 132.203 35.0279C131.433 35.3125 130.587 35.3125 129.817 35.0279C129.458 34.8973 129.132 34.6908 128.861 34.4227C128.591 34.1498 128.38 33.8246 128.24 33.4671C128.084 33.0672 128.008 32.6411 128.013 32.2121C128.002 31.7787 128.075 31.3473 128.227 30.9412ZM129.422 33.8908C129.857 34.2705 130.416 34.4797 130.994 34.4797C131.572 34.4797 132.131 34.2705 132.566 33.8908C132.769 33.6605 132.923 33.3926 133.022 33.1023C133.12 32.8121 133.16 32.5052 133.14 32.1994C133.162 31.8915 133.123 31.5822 133.023 31.29C132.923 30.9978 132.766 30.7286 132.56 30.4985C132.125 30.1228 131.569 29.9161 130.994 29.9161C130.419 29.9161 129.863 30.1228 129.428 30.4985C129.225 30.7291 129.07 30.9976 128.972 31.2884C128.873 31.5793 128.834 31.8867 128.855 32.193C128.813 32.8114 129.017 33.4212 129.422 33.8908ZM131.843 32.4765L132.404 33.6359H131.448L131.024 32.6963H130.626V33.6359H129.766V30.7024H131.021C131.36 30.6695 131.699 30.76 131.977 30.9572C132.075 31.0478 132.152 31.1592 132.201 31.2831C132.251 31.4071 132.272 31.5406 132.264 31.6738C132.272 31.8348 132.237 31.9951 132.164 32.1383C132.09 32.2816 131.979 32.4027 131.843 32.4893V32.4765ZM130.945 32.0274C131.058 32.0396 131.172 32.0077 131.263 31.9382C131.293 31.9064 131.316 31.8688 131.331 31.8277C131.346 31.7866 131.352 31.7429 131.349 31.6993C131.352 31.6559 131.345 31.6124 131.328 31.5722C131.311 31.5319 131.286 31.4959 131.254 31.4668C131.148 31.4021 131.023 31.3741 130.9 31.3872H130.626V32.0242L130.945 32.0274Z" fill="white"/>
</g>
<defs>
<clipPath id="clip0_4_40">
<rect width="134" height="40" fill="white"/>
</clipPath>
</defs>
</svg>
